<svg xmlns="http://www.w3.org/2000/svg" viewBox="0 0 720 720">
  <defs><radialGradient id="regoBg" cx="50%" cy="60%" r="70%"><stop offset="0" stop-color="#1c1712"/><stop offset="1" stop-color="#0c0a08"/></radialGradient><linearGradient id="hull" x1="0" y1="0" x2="0" y2="1"><stop stop-color="#c7ccd1"/><stop offset="1" stop-color="#565d64"/></linearGradient><filter id="dropSh" x="-30%" y="-30%" width="160%" height="160%"><feDropShadow dx="0" dy="8" stdDeviation="9" flood-opacity=".5"/></filter></defs>
  <rect x="0" y="0" width="720" height="720" fill="url(#regoBg)" opacity=".18"/>
  <g filter="url(#dropSh)" transform="translate(360 430)"><ellipse cx="0" cy="150" rx="110" ry="26" fill="#000" opacity=".55"/><path d="M0 -40 L-80 140" stroke="#3a3f44" stroke-width="3" fill="none" opacity=".85"/><circle cx="-80" cy="140" r="7" fill="#100e0c" stroke="#000" stroke-width="1.5"/><path d="M0 -40 L80 140" stroke="#3a3f44" stroke-width="3" fill="none" opacity=".85"/><circle cx="80" cy="140" r="7" fill="#100e0c" stroke="#000" stroke-width="1.5"/><rect x="-9" y="-190" width="18" height="200" fill="#8d949c" stroke="#2a2d30" stroke-width="3"/><g stroke="#a06be0" stroke-width="4" fill="none"><path d="M-40 -140 40 -140"/><path d="M-55 -100 55 -100"/><path d="M-30 -170 30 -170"/></g><circle cx="0" cy="-190" r="9" fill="#a06be0" stroke="#4b2a72" stroke-width="2"/><rect x="-30" y="-10" width="60" height="24" rx="4" fill="url(#hull)" stroke="#2a2d30" stroke-width="4"/></g>
  <g opacity=".9"><ellipse cx="220" cy="530" rx="22" ry="9" fill="#1c1712" stroke="#000" stroke-width="1"/><ellipse cx="520" cy="524" rx="16" ry="7" fill="#1c1712" stroke="#000" stroke-width="1"/><circle cx="265" cy="536" r="6" fill="#2a231b"/></g>
</svg>
