<svg xmlns="http://www.w3.org/2000/svg" width="1024" height="128" viewBox="0 0 1024 128"><g><g transform="translate(16 16) scale(0.75)"><path d="M8 64Q64 64 64 120" fill="none" stroke="#c7b28c" stroke-width="24" stroke-linecap="butt"/><path d="M8 64Q64 64 64 120" fill="none" stroke="#8f7a59" stroke-width="2" opacity=".6"/></g></g><g transform="rotate(45 192 64)"><g transform="translate(144 16) scale(0.75)"><path d="M8 64Q64 64 64 120" fill="none" stroke="#c7b28c" stroke-width="24" stroke-linecap="butt"/><path d="M8 64Q64 64 64 120" fill="none" stroke="#8f7a59" stroke-width="2" opacity=".6"/></g></g><g transform="rotate(90 320 64)"><g transform="translate(272 16) scale(0.75)"><path d="M8 64Q64 64 64 120" fill="none" stroke="#c7b28c" stroke-width="24" stroke-linecap="butt"/><path d="M8 64Q64 64 64 120" fill="none" stroke="#8f7a59" stroke-width="2" opacity=".6"/></g></g><g transform="rotate(135 448 64)"><g transform="translate(400 16) scale(0.75)"><path d="M8 64Q64 64 64 120" fill="none" stroke="#c7b28c" stroke-width="24" stroke-linecap="butt"/><path d="M8 64Q64 64 64 120" fill="none" stroke="#8f7a59" stroke-width="2" opacity=".6"/></g></g><g transform="rotate(180 576 64)"><g transform="translate(528 16) scale(0.75)"><path d="M8 64Q64 64 64 120" fill="none" stroke="#c7b28c" stroke-width="24" stroke-linecap="butt"/><path d="M8 64Q64 64 64 120" fill="none" stroke="#8f7a59" stroke-width="2" opacity=".6"/></g></g><g transform="rotate(225 704 64)"><g transform="translate(656 16) scale(0.75)"><path d="M8 64Q64 64 64 120" fill="none" stroke="#c7b28c" stroke-width="24" stroke-linecap="butt"/><path d="M8 64Q64 64 64 120" fill="none" stroke="#8f7a59" stroke-width="2" opacity=".6"/></g></g><g transform="rotate(270 832 64)"><g transform="translate(784 16) scale(0.75)"><path d="M8 64Q64 64 64 120" fill="none" stroke="#c7b28c" stroke-width="24" stroke-linecap="butt"/><path d="M8 64Q64 64 64 120" fill="none" stroke="#8f7a59" stroke-width="2" opacity=".6"/></g></g><g transform="rotate(315 960 64)"><g transform="translate(912 16) scale(0.75)"><path d="M8 64Q64 64 64 120" fill="none" stroke="#c7b28c" stroke-width="24" stroke-linecap="butt"/><path d="M8 64Q64 64 64 120" fill="none" stroke="#8f7a59" stroke-width="2" opacity=".6"/></g></g></svg>