<svg xmlns="http://www.w3.org/2000/svg" width="512" height="128" viewBox="0 0 512 128"><g transform="rotate(0 64 64)"><g transform="translate(16 16) scale(1)"><path d="M12 41l38-21 35 19-37 21z" fill="#34383b"/><path d="M17 43v35l31 14V58z" fill="#b94436"/><path d="M48 58v34l32-18V41z" fill="#a83830"/><rect x="55" y="57" width="19" height="21" fill="#d9dcda"/></g></g><g transform="rotate(90 192 64)"><g transform="translate(144 16) scale(1)"><path d="M12 41l38-21 35 19-37 21z" fill="#34383b"/><path d="M17 43v35l31 14V58z" fill="#b94436"/><path d="M48 58v34l32-18V41z" fill="#a83830"/><rect x="55" y="57" width="19" height="21" fill="#d9dcda"/></g></g><g transform="rotate(180 320 64)"><g transform="translate(272 16) scale(1)"><path d="M12 41l38-21 35 19-37 21z" fill="#34383b"/><path d="M17 43v35l31 14V58z" fill="#b94436"/><path d="M48 58v34l32-18V41z" fill="#a83830"/><rect x="55" y="57" width="19" height="21" fill="#d9dcda"/></g></g><g transform="rotate(270 448 64)"><g transform="translate(400 16) scale(1)"><path d="M12 41l38-21 35 19-37 21z" fill="#34383b"/><path d="M17 43v35l31 14V58z" fill="#b94436"/><path d="M48 58v34l32-18V41z" fill="#a83830"/><rect x="55" y="57" width="19" height="21" fill="#d9dcda"/></g></g></svg>